<svg width="16" height="16" viewBox="0 0 16 16" fill="none" xmlns="http://www.w3.org/2000/svg">
<g id="icon/book-text">
<path id="Vector" d="M2.66699 13.0002V3.00016C2.66699 2.55814 2.84259 2.13421 3.15515 1.82165C3.46771 1.50909 3.89163 1.3335 4.33366 1.3335H12.667C12.8438 1.3335 13.0134 1.40373 13.1384 1.52876C13.2634 1.65378 13.3337 1.82335 13.3337 2.00016V14.0002C13.3337 14.177 13.2634 14.3465 13.1384 14.4716C13.0134 14.5966 12.8438 14.6668 12.667 14.6668H4.33366C3.89163 14.6668 3.46771 14.4912 3.15515 14.1787C2.84259 13.8661 2.66699 13.4422 2.66699 13.0002ZM2.66699 13.0002C2.66699 12.5581 2.84259 12.1342 3.15515 11.8217C3.46771 11.5091 3.89163 11.3335 4.33366 11.3335H13.3337" stroke="#09090B" stroke-width="1.25" stroke-linecap="round" stroke-linejoin="round"/>
<path id="Vector_2" d="M5.33301 7.3335H10.6663" stroke="#09090B" stroke-width="1.25" stroke-linecap="round" stroke-linejoin="round"/>
<path id="Vector_3" d="M5.33301 4.6665H9.33301" stroke="#09090B" stroke-width="1.25" stroke-linecap="round" stroke-linejoin="round"/>
</g>
</svg>
