<svg width="32" height="32" viewBox="0 0 32 32" fill="none" xmlns="http://www.w3.org/2000/svg">
<g id="icon/chart-column-big">
<path id="Vector" d="M4 4V25.3333C4 26.0406 4.28095 26.7189 4.78105 27.219C5.28115 27.719 5.95942 28 6.66667 28H28" stroke="#09090B" stroke-width="1.75" stroke-linecap="round" stroke-linejoin="round"/>
<path id="Vector_2" d="M24 6.66675H21.3333C20.597 6.66675 20 7.2637 20 8.00008V21.3334C20 22.0698 20.597 22.6667 21.3333 22.6667H24C24.7364 22.6667 25.3333 22.0698 25.3333 21.3334V8.00008C25.3333 7.2637 24.7364 6.66675 24 6.66675Z" stroke="#09090B" stroke-width="1.75" stroke-linecap="round" stroke-linejoin="round"/>
<path id="Vector_3" d="M13.333 10.6667H10.6663C9.92996 10.6667 9.33301 11.2637 9.33301 12.0001V21.3334C9.33301 22.0698 9.92996 22.6667 10.6663 22.6667H13.333C14.0694 22.6667 14.6663 22.0698 14.6663 21.3334V12.0001C14.6663 11.2637 14.0694 10.6667 13.333 10.6667Z" stroke="#09090B" stroke-width="1.75" stroke-linecap="round" stroke-linejoin="round"/>
</g>
</svg>
