<svg width="16" height="16" viewBox="0 0 16 16" fill="none" xmlns="http://www.w3.org/2000/svg">
<g id="icon/layout-list">
<path id="Vector" d="M6 2H2.66667C2.29848 2 2 2.29848 2 2.66667V6C2 6.36819 2.29848 6.66667 2.66667 6.66667H6C6.36819 6.66667 6.66667 6.36819 6.66667 6V2.66667C6.66667 2.29848 6.36819 2 6 2Z" stroke="#09090B" stroke-width="1.25" stroke-linecap="round" stroke-linejoin="round"/>
<path id="Vector_2" d="M6 9.33325H2.66667C2.29848 9.33325 2 9.63173 2 9.99992V13.3333C2 13.7014 2.29848 13.9999 2.66667 13.9999H6C6.36819 13.9999 6.66667 13.7014 6.66667 13.3333V9.99992C6.66667 9.63173 6.36819 9.33325 6 9.33325Z" stroke="#09090B" stroke-width="1.25" stroke-linecap="round" stroke-linejoin="round"/>
<path id="Vector_3" d="M9.33203 2.66675H13.9987" stroke="#09090B" stroke-width="1.25" stroke-linecap="round" stroke-linejoin="round"/>
<path id="Vector_4" d="M9.33203 6H13.9987" stroke="#09090B" stroke-width="1.25" stroke-linecap="round" stroke-linejoin="round"/>
<path id="Vector_5" d="M9.33203 10H13.9987" stroke="#09090B" stroke-width="1.25" stroke-linecap="round" stroke-linejoin="round"/>
<path id="Vector_6" d="M9.33203 13.3333H13.9987" stroke="#09090B" stroke-width="1.25" stroke-linecap="round" stroke-linejoin="round"/>
</g>
</svg>
