<svg width="64" height="64" viewBox="0 0 64 64" fill="none" xmlns="http://www.w3.org/2000/svg">
<g id="logo">
<path id="Vector" d="M31.9913 57.6277C31.837 57.6277 31.6884 57.566 31.5785 57.456L19.0591 44.9355C18.9492 44.8255 18.8875 44.677 18.8875 44.5227C18.8875 44.3683 18.9492 44.2198 19.0591 44.1099C26.1896 36.9787 37.7909 36.9806 44.9215 44.1099C45.1491 44.3375 45.1491 44.7078 44.9215 44.9355L32.404 57.4541C32.2941 57.564 32.1455 57.6258 31.9913 57.6258V57.6277ZM20.3051 44.5304L31.9913 56.2177L43.6755 44.5323C37.114 38.3984 26.8666 38.3964 20.3051 44.5323V44.5304Z" fill="white" stroke="white" stroke-width="1.25"/>
<g id="Vector_2">
<path d="M44.5127 62.8164C39.6292 62.8164 35.0369 60.9125 31.5806 57.4579C31.353 57.2303 31.353 56.8599 31.5806 56.6323L44.0981 44.1137C44.316 43.8938 44.7056 43.8938 44.9236 44.1137L57.443 56.6342C57.6705 56.8618 57.6705 57.2322 57.443 57.4598C53.9886 60.9145 49.3982 62.8164 44.5127 62.8164ZM32.8266 57.0374C36.009 60.0137 40.1345 61.6475 44.5127 61.6475C48.889 61.6475 53.0146 60.0156 56.197 57.0393L44.5108 45.352L32.8266 57.0374Z" fill="white"/>
<path d="M44.5147 62.8164H44.5127M44.5127 62.8164C39.6292 62.8164 35.0369 60.9125 31.5806 57.4579C31.353 57.2303 31.353 56.8599 31.5806 56.6323L44.0981 44.1137C44.316 43.8938 44.7056 43.8938 44.9236 44.1137L57.443 56.6342C57.6706 56.8618 57.6706 57.2322 57.443 57.4598C53.9886 60.9145 49.3982 62.8164 44.5127 62.8164ZM32.8266 57.0374C36.009 60.0137 40.1345 61.6475 44.5127 61.6475C48.889 61.6475 53.0146 60.0156 56.197 57.0393L44.5108 45.352L32.8266 57.0374Z" stroke="white" stroke-width="1.25"/>
</g>
<path id="Vector_3" d="M57.0494 57.6101C56.8951 57.6101 56.7466 57.5483 56.6366 57.4384L44.1172 44.9178C43.8896 44.6902 43.8896 44.3199 44.1172 44.0923L56.6347 31.5736C56.8526 31.3537 57.2422 31.3537 57.4602 31.5736C64.5907 38.7048 64.5926 50.3091 57.4621 57.4384C57.3522 57.5483 57.2037 57.6101 57.0494 57.6101ZM45.3574 44.505L57.0436 56.1923C63.1769 49.6302 63.175 39.3818 57.0417 32.8197L45.3574 44.505Z" fill="white" stroke="white" stroke-width="1.25"/>
<path id="Vector_4" d="M44.5299 45.0876C44.3756 45.0876 44.2271 45.0259 44.1172 44.9159C36.9866 37.7847 36.9847 26.1804 44.1152 19.0512C44.3332 18.8313 44.7228 18.8313 44.9407 19.0512L57.4601 31.5717C57.6877 31.7993 57.6877 32.1697 57.4601 32.3973L44.9427 44.9159C44.8327 45.0259 44.6842 45.0876 44.5299 45.0876ZM44.5357 20.2972C38.4023 26.8594 38.4043 37.1077 44.5376 43.6699L56.2219 31.9845L44.5357 20.2972Z" fill="white" stroke="white" stroke-width="1.25"/>
<path id="Vector_5" d="M32.0125 25.2372H32.0106C27.127 25.2372 22.5347 23.3333 19.0784 19.8787C18.8508 19.651 18.8508 19.2807 19.0784 19.0531L31.5959 6.53251C31.7058 6.42256 31.8543 6.36084 32.0086 6.36084C32.1629 6.36084 32.3114 6.42256 32.4214 6.53251L44.9408 19.0531C45.1684 19.2807 45.1684 19.651 44.9408 19.8787C41.4864 23.3333 36.8941 25.2352 32.0106 25.2352L32.0125 25.2372ZM20.3244 19.4582C23.5068 22.4345 27.6323 24.0683 32.0106 24.0683C36.3868 24.0683 40.5124 22.4364 43.6948 19.4601L32.0086 7.7728L20.3244 19.4582Z" fill="white" stroke="white" stroke-width="1.25"/>
<path id="Vector_6" d="M19.4913 20.0486C19.3408 20.0486 19.1923 19.9907 19.0785 19.8769L6.55911 7.3583C6.44917 7.24835 6.38745 7.09983 6.38745 6.94551C6.38745 6.7912 6.44917 6.64267 6.55911 6.53273C13.6896 -0.598462 25.2909 -0.596533 32.4215 6.53273C32.5314 6.64267 32.5931 6.7912 32.5931 6.94551C32.5931 7.09983 32.5314 7.24835 32.4215 7.3583L19.904 19.8769C19.7902 19.9907 19.6398 20.0486 19.4913 20.0486ZM7.80507 6.9513L19.4913 18.6386L31.1755 6.95323C24.614 0.819289 14.3666 0.81736 7.80507 6.95323V6.9513Z" fill="white" stroke="white" stroke-width="1.25"/>
<path id="Vector_7" d="M6.95436 32.5866C6.80392 32.5866 6.6554 32.5287 6.54161 32.4149C3.08725 28.9602 1.18359 24.3675 1.18359 19.4835C1.18359 14.5975 3.08532 10.0048 6.53968 6.5501C6.76727 6.32249 7.13759 6.32249 7.36518 6.5501L19.8846 19.0707C20.1122 19.2983 20.1122 19.6686 19.8846 19.8962L7.36711 32.4149C7.25331 32.5287 7.10287 32.5866 6.95436 32.5866ZM6.96014 7.79618C3.98411 10.9789 2.3524 15.1048 2.3524 19.4835C2.3524 23.8602 3.98604 27.988 6.96207 31.1707L18.6463 19.4854L6.96014 7.79618Z" fill="white" stroke="white" stroke-width="1.25"/>
<path id="Vector_8" d="M6.95243 57.6276C6.80199 57.6276 6.65348 57.5697 6.53968 57.4559C3.08532 54.0031 1.18359 49.4104 1.18359 44.5245C1.18359 39.6405 3.08725 35.0477 6.54161 31.5911C6.7692 31.3635 7.13952 31.3635 7.36711 31.5911L19.8846 44.1098C19.9945 44.2197 20.0562 44.3682 20.0562 44.5225C20.0562 44.6769 19.9945 44.8254 19.8846 44.9353L7.36518 57.4559C7.25138 57.5697 7.10094 57.6276 6.95243 57.6276ZM6.96207 32.8372C3.98604 36.0199 2.35241 40.1458 2.35241 44.5245C2.35241 48.9012 3.98411 53.029 6.96014 56.2098L18.6463 44.5225L6.96207 32.8372Z" fill="white" stroke="white" stroke-width="1.25"/>
<g id="Vector_9">
<path d="M19.472 62.8163C14.5885 62.8163 9.99614 60.9144 6.54179 57.4597C6.3142 57.2321 6.3142 56.8617 6.54179 56.6341L19.0612 44.1136C19.1711 44.0036 19.3196 43.9419 19.4739 43.9419C19.6282 43.9419 19.7767 44.0036 19.8867 44.1136L32.4041 56.6322C32.6317 56.8598 32.6317 57.2302 32.4041 57.4578C28.9498 60.9125 24.3575 62.8163 19.472 62.8163ZM7.78775 57.0392C10.9682 60.0155 15.0957 61.6474 19.472 61.6474H19.4739C23.8502 61.6474 27.9777 60.0136 31.1601 57.0373L19.4759 45.3519L7.78968 57.0392H7.78775Z" fill="white"/>
<path d="M19.472 62.8163C14.5885 62.8163 9.99614 60.9144 6.54179 57.4597C6.3142 57.2321 6.3142 56.8617 6.54179 56.6341L19.0612 44.1136C19.1711 44.0036 19.3196 43.9419 19.4739 43.9419C19.6282 43.9419 19.7767 44.0036 19.8867 44.1136L32.4041 56.6322C32.6317 56.8598 32.6317 57.2302 32.4041 57.4578C28.9498 60.9125 24.3575 62.8163 19.472 62.8163ZM19.472 62.8163H19.4701M7.78775 57.0392C10.9682 60.0155 15.0957 61.6474 19.472 61.6474H19.4739C23.8502 61.6474 27.9777 60.0136 31.1601 57.0373L19.4759 45.3519L7.78968 57.0392H7.78775Z" stroke="white" stroke-width="1.25"/>
</g>
<path id="Vector_10" d="M57.0455 32.569C56.895 32.569 56.7465 32.5111 56.6327 32.3973L44.1153 19.8787C43.8877 19.6511 43.8877 19.2807 44.1153 19.0531L56.6347 6.53253C56.8623 6.30491 57.2326 6.30491 57.4602 6.53253C60.9145 9.98721 62.8162 14.5799 62.8162 19.4659C62.8162 24.3499 60.9126 28.9426 57.4582 32.3992C57.3444 32.513 57.194 32.5709 57.0455 32.5709V32.569ZM45.3554 19.4659L57.0397 31.1512C60.0157 27.9685 61.6494 23.8426 61.6494 19.464C61.6494 15.0872 60.0177 10.9594 57.0416 7.77667L45.3554 19.464V19.4659Z" fill="white" stroke="white" stroke-width="1.25"/>
<path id="Vector_11" d="M44.5282 20.0486C44.3739 20.0486 44.2253 19.9869 44.1154 19.8769L31.5979 7.35828C31.3703 7.13067 31.3703 6.76032 31.5979 6.53271C38.7285 -0.59848 50.3317 -0.600409 57.4603 6.53271C57.6879 6.76032 57.6879 7.13067 57.4603 7.35828L44.9409 19.8789C44.831 19.9888 44.6825 20.0505 44.5282 20.0505V20.0486ZM32.8439 6.95321L44.5282 18.6386L56.2143 6.95128C49.6528 0.817342 39.4054 0.81927 32.8439 6.95128V6.95321Z" fill="white" stroke="white" stroke-width="1.25"/>
<path id="Vector_12" d="M19.4739 45.109C19.3235 45.109 19.175 45.0512 19.0612 44.9374L6.54177 32.4187C6.43184 32.3088 6.37012 32.1603 6.37012 32.0059C6.37012 31.8516 6.43184 31.7031 6.54177 31.5932L19.0592 19.0745C19.2868 18.8469 19.6571 18.8469 19.8847 19.0745C23.3391 22.5292 25.2428 27.1219 25.2428 32.0079C25.2428 36.8938 23.341 41.4865 19.8867 44.9412C19.7729 45.055 19.6224 45.1129 19.4739 45.1129V45.109ZM7.78195 32.004L19.4681 43.6913C22.4442 40.5105 24.0759 36.3826 24.0759 32.0059C24.0759 27.6292 22.4422 23.5014 19.4662 20.3187L7.78195 32.004Z" fill="white" stroke="white" stroke-width="1.25"/>
</g>
</svg>
