<svg width="40" height="40" viewBox="0 0 40 40" fill="none" xmlns="http://www.w3.org/2000/svg">
<g clip-path="url(#clip0_1220_2546)">
<path d="M19.9953 34.5156C19.9079 34.5156 19.8238 34.4806 19.7615 34.4184L12.6705 27.3266C12.6082 27.2644 12.5732 27.1802 12.5732 27.0928C12.5732 27.0054 12.6082 26.9213 12.6705 26.859C16.7092 22.8199 23.2803 22.821 27.3191 26.859C27.448 26.988 27.448 27.1977 27.3191 27.3266L20.2291 34.4173C20.1668 34.4796 20.0827 34.5145 19.9953 34.5145V34.5156ZM13.3762 27.0972L19.9953 33.717L26.6133 27.0983C22.8968 23.624 17.0927 23.6229 13.3762 27.0983V27.0972Z" fill="#09090B" stroke="#09090B" stroke-width="1.25"/>
<path d="M27.0871 37.4543C24.321 37.4543 21.7199 36.376 19.7622 34.4192C19.6333 34.2903 19.6333 34.0805 19.7622 33.9516L26.8522 26.861C26.9756 26.7364 27.1963 26.7364 27.3197 26.861L34.4108 33.9527C34.5397 34.0816 34.5397 34.2914 34.4108 34.4203C32.4542 36.3771 29.8542 37.4543 27.0871 37.4543ZM20.4679 34.1811C22.2705 35.8669 24.6072 36.7923 27.0871 36.7923C29.5658 36.7923 31.9026 35.868 33.7051 34.1822L27.086 27.5624L20.4679 34.1811Z" fill="#09090B"/>
<path d="M27.0881 37.4543H27.0871M27.0871 37.4543C24.321 37.4543 21.7199 36.376 19.7622 34.4192C19.6333 34.2903 19.6333 34.0805 19.7622 33.9516L26.8522 26.861C26.9756 26.7364 27.1963 26.7364 27.3197 26.861L34.4108 33.9527C34.5397 34.0816 34.5397 34.2914 34.4108 34.4203C32.4542 36.3771 29.8542 37.4543 27.0871 37.4543ZM20.4679 34.1811C22.2705 35.8669 24.6072 36.7923 27.0871 36.7923C29.5658 36.7923 31.9026 35.868 33.7051 34.1822L27.086 27.5624L20.4679 34.1811Z" stroke="#09090B" stroke-width="1.25"/>
<path d="M34.1881 34.5057C34.1007 34.5057 34.0166 34.4707 33.9543 34.4084L26.8633 27.3167C26.7344 27.1878 26.7344 26.978 26.8633 26.8491L33.9533 19.7585C34.0767 19.6339 34.2974 19.6339 34.4208 19.7585C38.4596 23.7976 38.4607 30.3704 34.4219 34.4084C34.3596 34.4707 34.2755 34.5057 34.1881 34.5057ZM27.5657 27.0829L34.1849 33.7026C37.6588 29.9858 37.6577 24.1811 34.1838 20.4642L27.5657 27.0829Z" fill="#09090B" stroke="#09090B" stroke-width="1.25"/>
<path d="M27.0969 27.4129C27.0095 27.4129 26.9254 27.3779 26.8631 27.3157C22.8243 23.2765 22.8233 16.7037 26.862 12.6657C26.9855 12.5411 27.2061 12.5411 27.3296 12.6657L34.4207 19.7574C34.5496 19.8863 34.5496 20.0961 34.4207 20.225L27.3307 27.3157C27.2684 27.3779 27.1843 27.4129 27.0969 27.4129ZM27.1002 13.3715C23.6262 17.0883 23.6273 22.893 27.1013 26.6099L33.7193 19.9912L27.1002 13.3715Z" fill="#09090B" stroke="#09090B" stroke-width="1.25"/>
<path d="M20.0071 16.1697H20.006C17.2399 16.1697 14.6388 15.0914 12.6812 13.1346C12.5522 13.0057 12.5522 12.7959 12.6812 12.667L19.7711 5.57526C19.8334 5.51299 19.9175 5.47803 20.0049 5.47803C20.0923 5.47803 20.1764 5.51299 20.2387 5.57526L27.3298 12.667C27.4587 12.7959 27.4587 13.0057 27.3298 13.1346C25.3732 15.0914 22.7721 16.1686 20.006 16.1686L20.0071 16.1697ZM13.3869 12.8964C15.1894 14.5822 17.5262 15.5076 20.006 15.5076C22.4848 15.5076 24.8215 14.5833 26.624 12.8975L20.0049 6.27777L13.3869 12.8964Z" fill="#09090B" stroke="#09090B" stroke-width="1.25"/>
<path d="M12.9147 13.2303C12.8295 13.2303 12.7454 13.1976 12.681 13.1331L5.5899 6.04246C5.52763 5.98019 5.49268 5.89606 5.49268 5.80866C5.49268 5.72125 5.52763 5.63713 5.5899 5.57485C9.62867 1.5357 16.1997 1.53679 20.2385 5.57485C20.3008 5.63713 20.3357 5.72125 20.3357 5.80866C20.3357 5.89606 20.3008 5.98019 20.2385 6.04246L13.1485 13.1331C13.0841 13.1976 12.9989 13.2303 12.9147 13.2303ZM6.29562 5.81193L12.9147 12.4317L19.5328 5.81303C15.8163 2.33872 10.0121 2.33763 6.29562 5.81303V5.81193Z" fill="#09090B" stroke="#09090B" stroke-width="1.25"/>
<path d="M5.81401 20.3322C5.7288 20.3322 5.64468 20.2994 5.58022 20.2349C3.62365 18.2782 2.54541 15.6768 2.54541 12.9105C2.54541 10.1431 3.62256 7.54173 5.57913 5.58497C5.70804 5.45605 5.91779 5.45605 6.0467 5.58497L13.1378 12.6767C13.2667 12.8056 13.2667 13.0154 13.1378 13.1443L6.04779 20.2349C5.98334 20.2994 5.89812 20.3322 5.81401 20.3322ZM5.81728 6.29076C4.13164 8.09346 3.20743 10.4304 3.20743 12.9105C3.20743 15.3895 4.13273 17.7276 5.81838 19.5303L12.4364 12.9116L5.81728 6.29076Z" fill="#09090B" stroke="#09090B" stroke-width="1.25"/>
<path d="M5.81291 34.5158C5.7277 34.5158 5.64359 34.483 5.57913 34.4185C3.62256 32.4629 2.54541 29.8615 2.54541 27.0941C2.54541 24.3278 3.62365 21.7264 5.58022 19.7686C5.70913 19.6396 5.91888 19.6396 6.04779 19.7686L13.1378 26.8592C13.2 26.9215 13.235 27.0056 13.235 27.093C13.235 27.1804 13.2 27.2645 13.1378 27.3268L6.0467 34.4185C5.98224 34.483 5.89703 34.5158 5.81291 34.5158ZM5.81838 20.4744C4.13273 22.2771 3.20743 24.614 3.20743 27.0941C3.20743 29.5731 4.13164 31.9111 5.81728 33.7128L12.4364 27.093L5.81838 20.4744Z" fill="#09090B" stroke="#09090B" stroke-width="1.25"/>
<path d="M12.9038 37.4547C10.1378 37.4547 7.53665 36.3775 5.58008 34.4207C5.45117 34.2918 5.45117 34.082 5.58008 33.9531L12.6711 26.8614C12.7334 26.7991 12.8175 26.7642 12.9049 26.7642C12.9923 26.7642 13.0764 26.7991 13.1387 26.8614L20.2287 33.952C20.3576 34.081 20.3576 34.2907 20.2287 34.4196C18.2721 36.3764 15.671 37.4547 12.9038 37.4547ZM6.2858 34.1826C8.08724 35.8684 10.4251 36.7927 12.9038 36.7927H12.9049C15.3837 36.7927 17.7215 35.8673 19.5241 34.1815L12.906 27.5628L6.28689 34.1826H6.2858Z" fill="#09090B"/>
<path d="M12.9038 37.4547C10.1378 37.4547 7.53665 36.3775 5.58008 34.4207C5.45117 34.2918 5.45117 34.082 5.58008 33.9531L12.6711 26.8614C12.7334 26.7991 12.8175 26.7642 12.9049 26.7642C12.9923 26.7642 13.0764 26.7991 13.1387 26.8614L20.2287 33.952C20.3576 34.081 20.3576 34.2907 20.2287 34.4196C18.2721 36.3764 15.671 37.4547 12.9038 37.4547ZM12.9038 37.4547H12.9027M6.2858 34.1826C8.08724 35.8684 10.4251 36.7927 12.9038 36.7927H12.9049C15.3837 36.7927 17.7215 35.8673 19.5241 34.1815L12.906 27.5628L6.28689 34.1826H6.2858Z" stroke="#09090B" stroke-width="1.25"/>
<path d="M34.1861 20.3224C34.1009 20.3224 34.0167 20.2896 33.9523 20.2252L26.8623 13.1345C26.7334 13.0056 26.7334 12.7959 26.8623 12.6669L33.9534 5.57521C34.0823 5.44629 34.292 5.44629 34.4209 5.57521C36.3775 7.53196 37.4547 10.1333 37.4547 12.9007C37.4547 15.6671 36.3764 18.2684 34.4198 20.2263C34.3554 20.2907 34.2702 20.3235 34.1861 20.3235V20.3224ZM27.5647 12.9007L34.1828 19.5194C35.8684 17.7167 36.7937 15.3797 36.7937 12.8996C36.7937 10.4207 35.8695 8.0826 34.1839 6.2799L27.5647 12.8996V12.9007Z" fill="#09090B" stroke="#09090B" stroke-width="1.25"/>
<path d="M27.0962 13.2307C27.0088 13.2307 26.9247 13.1957 26.8624 13.1334L19.7725 6.04279C19.6436 5.91387 19.6436 5.7041 19.7725 5.57518C23.8112 1.53603 30.3834 1.53494 34.4211 5.57518C34.55 5.7041 34.55 5.91387 34.4211 6.04279L27.33 13.1345C27.2677 13.1968 27.1836 13.2318 27.0962 13.2318V13.2307ZM20.4782 5.81336L27.0962 12.432L33.7153 5.81227C29.9988 2.33796 24.1947 2.33906 20.4782 5.81227V5.81336Z" fill="#09090B" stroke="#09090B" stroke-width="1.25"/>
<path d="M12.905 27.4248C12.8198 27.4248 12.7357 27.3921 12.6712 27.3276L5.58014 20.237C5.51787 20.1747 5.48291 20.0906 5.48291 20.0032C5.48291 19.9158 5.51787 19.8316 5.58014 19.7694L12.6701 12.6787C12.799 12.5498 13.0088 12.5498 13.1377 12.6787C15.0942 14.6355 16.1725 17.2368 16.1725 20.0043C16.1725 22.7717 15.0953 25.373 13.1388 27.3298C13.0743 27.3943 12.9891 27.427 12.905 27.427V27.4248ZM6.28258 20.0021L12.9017 26.6218C14.5874 24.8202 15.5116 22.4822 15.5116 20.0032C15.5116 17.5242 14.5863 15.1861 12.9006 13.3834L6.28258 20.0021Z" fill="#09090B" stroke="#09090B" stroke-width="1.25"/>
</g>
<defs>
<clipPath id="clip0_1220_2546">
<rect width="40" height="40" fill="white"/>
</clipPath>
</defs>
</svg>
