<svg width="32" height="32" viewBox="0 0 32 32" fill="none" xmlns="http://www.w3.org/2000/svg">
<g id="icon/sparkles">
<path id="Vector" d="M13.2496 20.6663C13.1305 20.2049 12.89 19.7838 12.5531 19.4469C12.2161 19.1099 11.795 18.8694 11.3336 18.7503L3.15358 16.641C3.01402 16.6014 2.89119 16.5173 2.80373 16.4016C2.71627 16.2859 2.66895 16.1448 2.66895 15.9997C2.66895 15.8546 2.71627 15.7135 2.80373 15.5978C2.89119 15.482 3.01402 15.398 3.15358 15.3583L11.3336 13.2477C11.7948 13.1288 12.2158 12.8884 12.5528 12.5517C12.8897 12.215 13.1303 11.7942 13.2496 11.333L15.3589 3.15301C15.3981 3.01291 15.4821 2.88947 15.598 2.80154C15.7139 2.71361 15.8554 2.66602 16.0009 2.66602C16.1464 2.66602 16.2879 2.71361 16.4038 2.80154C16.5197 2.88947 16.6037 3.01291 16.6429 3.15301L18.7509 11.333C18.8699 11.7944 19.1105 12.2155 19.4474 12.5525C19.7844 12.8895 20.2055 13.13 20.6669 13.249L28.8469 15.357C28.9876 15.3958 29.1116 15.4797 29.2 15.5958C29.2884 15.7119 29.3363 15.8538 29.3363 15.9997C29.3363 16.1456 29.2884 16.2875 29.2 16.4036C29.1116 16.5197 28.9876 16.6035 28.8469 16.6423L20.6669 18.7503C20.2055 18.8694 19.7844 19.1099 19.4474 19.4469C19.1105 19.7838 18.8699 20.2049 18.7509 20.6663L16.6416 28.8463C16.6024 28.9865 16.5184 29.1099 16.4025 29.1978C16.2866 29.2858 16.1451 29.3333 15.9996 29.3333C15.8541 29.3333 15.7126 29.2858 15.5967 29.1978C15.4808 29.1099 15.3968 28.9865 15.3576 28.8463L13.2496 20.6663Z" stroke="#09090B" stroke-width="1.75" stroke-linecap="round" stroke-linejoin="round"/>
<path id="Vector_2" d="M26.667 4V9.33333" stroke="#09090B" stroke-width="1.75" stroke-linecap="round" stroke-linejoin="round"/>
<path id="Vector_3" d="M29.3333 6.66699H24" stroke="#09090B" stroke-width="1.75" stroke-linecap="round" stroke-linejoin="round"/>
<path id="Vector_4" d="M5.33301 22.6667V25.3334" stroke="#09090B" stroke-width="1.75" stroke-linecap="round" stroke-linejoin="round"/>
<path id="Vector_5" d="M6.66667 24H4" stroke="#09090B" stroke-width="1.75" stroke-linecap="round" stroke-linejoin="round"/>
</g>
</svg>
